<svg xmlns="http://www.w3.org/2000/svg" height="600pt" version="1.1" viewBox="-35 0 600 600" width="600pt">
<g id="surface1">
<path d="M 530 450 C 529.945312 398.5625 503.519531 350.746094 460 323.328125 L 460 130 C 460 129.789062 459.886719 129.601562 459.878906 129.390625 C 459.824219 128.507812 459.648438 127.632812 459.359375 126.792969 C 459.25 126.46875 459.171875 126.171875 459.027344 125.859375 C 458.546875 124.769531 457.867188 123.78125 457.03125 122.929688 L 337.03125 2.929688 C 336.1875 2.09375 335.195312 1.414062 334.109375 0.929688 C 333.789062 0.789062 333.480469 0.707031 333.160156 0.601562 C 332.335938 0.3125 331.476562 0.140625 330.601562 0.0859375 C 330.421875 0.113281 330.21875 0 330 0 L 10 0 C 4.476562 0 0 4.476562 0 10 L 0 590 C 0 595.523438 4.476562 600 10 600 L 450 600 C 455.523438 600 460 595.523438 460 590 L 460 576.671875 C 503.519531 549.253906 529.945312 501.4375 530 450 Z M 425.859375 120 L 340 120 L 340 34.140625 Z M 20 580 L 20 20 L 320 20 L 320 130 C 320 135.523438 324.476562 140 330 140 L 440 140 L 440 312.613281 C 367.015625 280.609375 281.75 311.320312 245.933594 382.507812 C 210.117188 453.703125 236.28125 540.472656 305.476562 580 Z M 380 580 C 308.203125 580 250 521.796875 250 450 C 250 378.203125 308.203125 320 380 320 C 451.796875 320 510 378.203125 510 450 C 509.917969 521.761719 451.761719 579.917969 380 580 Z M 380 580 " style=" stroke:none;fill-rule:nonzero;fill:rgb(0%,0%,0%);fill-opacity:1;" />
<path d="M 390 440 L 390 350 L 370 350 L 370 440 L 280 440 L 280 460 L 370 460 L 370 540 L 390 540 L 390 460 L 480 460 L 480 440 Z M 390 440 " style=" stroke:none;fill-rule:nonzero;fill:rgb(0%,0%,0%);fill-opacity:1;" />
</g>
</svg>