<?xml version="1.0" standalone="no"?><!DOCTYPE svg PUBLIC "-//W3C//DTD SVG 1.1//EN" "http://www.w3.org/Graphics/SVG/1.1/DTD/svg11.dtd"><svg t="1561714535062" class="icon" viewBox="0 0 1024 1024" version="1.1" xmlns="http://www.w3.org/2000/svg" p-id="3293" xmlns:xlink="http://www.w3.org/1999/xlink" width="200" height="200"><defs><style type="text/css"></style></defs><path d="M347.136 855.04c-3.584 0-7.68 0-11.264-0.512-53.76-3.072-104.96-26.624-144.896-66.56-79.36-79.36-82.944-214.016-8.192-288.768L478.72 203.264c6.656-6.656 15.36-10.24 24.576-10.24 9.216 0 17.92 3.584 24.576 10.24 13.312 13.312 13.312 35.84 0 49.152L231.936 548.352c-43.008 43.008-48.64 133.632 8.192 190.464 27.648 27.648 62.976 44.032 99.84 46.08h7.68c33.28 0 65.024-12.8 88.576-36.352L793.6 390.656c19.968-19.968 30.72-40.448 31.744-59.392 1.024-20.48-9.728-42.496-31.744-64-23.552-23.552-49.152-28.672-66.048-28.672-25.6 0-48.64 11.264-58.88 21.504L358.4 570.368c-10.752 10.752-18.944 24.576-23.04 37.888-3.584 12.288-2.56 23.04 2.56 28.16 6.656 6.656 15.36 10.24 24.576 10.24 15.36 0 32.768-8.704 48.64-24.576L701.44 331.776c4.608-4.608 12.8-7.68 21.504-7.68 9.728 0 18.944 3.584 24.576 8.704 5.12 5.12 8.704 13.824 9.728 23.04 1.024 10.24-1.536 19.456-6.656 24.576L460.288 670.72c-36.864 36.864-73.216 44.544-97.28 44.544-28.16 0-54.784-10.752-74.24-30.208-45.056-45.056-25.088-118.784 20.48-164.352L619.52 210.432c25.6-25.6 67.072-41.984 108.032-41.984 30.208 0 74.752 8.704 115.2 49.152 36.352 36.352 53.76 75.264 52.224 116.224-1.536 37.376-18.944 72.704-52.224 105.984L484.864 797.696C448 834.56 399.36 855.04 347.136 855.04z" fill="#2C2C2C" p-id="3294"></path></svg>